<mxfile host="app.diagrams.net" modified="2023-11-23T06:54:55.559Z" agent="Mozilla/5.0 (iPhone; CPU iPhone OS 17_1_1 like Mac OS X) AppleWebKit/605.1.15 (KHTML, like Gecko) Version/17.1.1 Mobile/15E148 Safari/604.1" version="22.1.3" etag="_lFZgjmEnpoTS0QFfMdd" type="github">
  <diagram name="Page-1" id="98kYGTJpdiyj0F_VZxmq">
    <mxGraphModel>
      <root>
        <mxCell id="0" />
        <mxCell id="1" parent="0" />
      </root>
    </mxGraphModel>
  </diagram>
</mxfile>
